<?xml version="1.0" encoding="utf-8"?>
<!-- Generator: Adobe Illustrator 16.0.0, SVG Export Plug-In . SVG Version: 6.00 Build 0)  -->
<!DOCTYPE svg PUBLIC "-//W3C//DTD SVG 1.1//EN" "http://www.w3.org/Graphics/SVG/1.1/DTD/svg11.dtd">
<svg version="1.1" id="Layer_1" xmlns="http://www.w3.org/2000/svg" xmlns:xlink="http://www.w3.org/1999/xlink" x="0px" y="0px"
	 width="612px" height="373.195px" viewBox="0 0 612 373.195" enable-background="new 0 0 612 373.195" xml:space="preserve">
<g>
	<g>
		<g>
			<g>
				<g>
					<g>
						<path fill="#CCCCCC" d="M25.557,291.392c0,0-6.916,0-7.703,0c-4.35,0-5.465,0.557-8.817,2.57
							c-2.783,1.671-3.679,1.335-5.909,5.126c-0.561,1.119-1.448,4.581-1.448,4.581H0c1.678-10.381,5.021-10.154,6.804-15.958
							c2.123,0.56,3.238,0.783,9.154,0.783c0,0,20.868,0,33.924,0c5.584,0,12.839-1.566,14.962,1.895
							c1.451,2.231,1.003,5.354-1.231,9.378c-0.556,1.225-3.237,5.019-3.237,5.019l-1.112-1.003
							c5.245-7.371,2.115-12.39-0.897-12.39H42.407c-3.679,0-4.351,2.794-4.351,7.028v57.146c0,7.252-0.56,12.386,2.231,14.176
							c2.79,1.779,5.129,1.446,8.598,1.111v1.896c-2.682,0.224-2.682,0.224-6.588,0c-3.35-0.329-5.808-1.003-8.591-1.003
							c-2.906,0-5.252,1.45-10.158,1.227c-3.462-0.108-2.682-0.108-5.249-0.552v-2.015c1.451,0.34,4.574,1.116,7.028,0.34
							c4.801-1.458,4.133-6.256,4.133-13.844V298.42C29.462,294.186,29.351,291.392,25.557,291.392z"/>
						<path fill="#CCCCCC" d="M158.564,298.868c2.354-6.025,1.791-7.477,0.783-8.479c-1.112-1.229-2.563-0.56-3.685-0.56v-1.783
							c3.576-1.343,7.703,0.333,9.489,0.333c1.79,0,5.473-1.451,9.486-0.448v1.79c-2.119,0-4.686-0.563-6.808,0.333
							c-2.344,0.783-4.129,4.133-8.483,14.952l-4.01,10.497l16.401,43.078l21.204-56.03c2.451-6.808,2.79-8.703-1.45-12.161
							c-1.679-1.343-6.138-0.224-7.584-0.224v-1.896c2.111-0.339,1.111-0.675,4.572-0.675c4.906,0,7.584,0.783,9.371,0.783
							s2.458-0.668,5.809-0.668c3.897,0,3.233,0,5.916,0.335v2.007c-2.126-0.333-3.134-0.671-5.256,0.112
							c-2.339,0.892-4.123,4.021-8.472,14.84l-27.12,69.534l-18.196-46.765l-18.306,46.765l-29.902-76.679
							c-2.234-5.685-3.351-7.472-6.813-8.14c-1.566,0-3.462,0.444-3.462,0.444v-1.896c1.23-0.339,1.116-0.675,4.574-0.675
							c4.917,0,5.584,0.898,8.482,0.898c2.902,0,3.126-0.898,6.479-0.898c3.898,0,4.906,0,7.584,0.451v2.007
							c-4.687-0.671-5.245-0.224-7.141,1.563c-1.896,2.01,0.553,7.252,2.79,13.389l20.425,53.575l13.611-34.819l-7.252-18.756
							c-4.245-10.819-6.032-14.168-8.371-14.952c-2.119-0.895-4.691-0.333-6.923-0.333v-1.79c4.133-1.003,11.725,0.448,13.511,0.448
							c1.783,0,8.592-1.675,12.161-0.333v1.783c-1.114,0-2.565-0.671-3.797,0.56c-0.888,1.003-1.451,2.563,0.899,8.479l4.573,12.389
							L158.564,298.868z"/>
						<path fill="#CCCCCC" d="M243.473,289.721c-2.451-0.897-5.584,0-7.144,0.333v-2.007c2.675-0.451,1.896-0.451,5.354-0.671
							c4.917-0.112,7.15,1.339,10.161,1.339c2.791,0,5.245-0.668,8.591-1.003c3.913-0.336,3.913-0.336,6.477,0v1.783
							c-3.461-0.335-5.696-0.671-8.483,1.23c-2.79,1.783-2.342,6.805-2.342,14.061v23.325v27.456c0,7.252-0.448,12.386,2.342,14.176
							c2.787,1.779,5.021,1.446,8.483,1.111v1.896c-2.563,0.224-2.563,0.224-6.477,0c-3.346-0.329-5.801-1.003-8.591-1.003
							c-3.011,0-5.245,1.45-10.161,1.227c-3.458-0.107-2.678-0.107-5.354-0.552v-2.014c1.56,0.339,4.692,1.115,7.144,0.339
							c4.797-1.458,4.129-6.255,4.129-13.844v-28.902v-24.553C247.603,295.962,248.271,291.172,243.473,289.721z"/>
						<path fill="#CCCCCC" d="M300.937,372.972c-3.455,0-2.675-0.552-5.356-0.552v-2.015c1.565,0,4.686,1.116,7.144,0.34
							c4.682-1.458,4.129-6.256,4.129-13.844v-28.902v-24.554c0-7.482,0.553-12.272-4.129-13.725
							c-2.458-0.898-5.577,0.333-7.144,0.333v-2.007c2.682,0,1.901-0.671,5.356-0.671c4.909,0,7.14,1.339,10.154,1.339
							c2.794,0,5.248-1.003,8.481-1.003c4.019,0,4.019,0,6.588,0v1.783c-3.462,0-5.688-0.671-8.482,1.23
							c-2.79,1.783-2.343,6.804-2.343,14.061v52.789c0,7.363,0,8.588,3.122,10.492c2.122,1.336,10.043,1.222,16.295,0.893
							c5.473-0.339,16.737-6.588,20.424-10.378c2.897-3.126,2.897-6.477,2.897-8.374h1.451c0,5.916-0.779,8.703-2.563,11.272
							c-4.126,5.913-4.802,7.141-6.145,11.718c0,0-12.497-0.333-23.099-0.776c-8.147-0.339-11.382-0.224-15.18-0.224
							C309.643,372.196,305.846,372.972,300.937,372.972z"/>
						<path fill="#CCCCCC" d="M390.981,372.972c-3.458,0-2.679-0.552-5.36-0.552v-2.015c1.566,0,4.692,1.116,7.146,0.34
							c4.686-1.458,4.134-6.256,4.134-13.844v-28.902v-24.554c0-7.482,0.552-12.272-4.134-13.725
							c-2.454-0.898-5.58,0.333-7.146,0.333v-2.007c2.683,0,1.902-0.671,5.36-0.671c4.912,0,7.145,1.339,10.157,1.339
							c2.794,0,5.241-1.003,8.482-1.003c4.019,0,4.019,0,6.58,0v1.783c-3.454,0-5.688-0.671-8.476,1.23
							c-2.79,1.783-2.347,6.804-2.347,14.061v52.789c0,7.363,0,8.588,3.126,10.492c2.115,1.336,10.043,1.222,16.295,0.893
							c5.465-0.339,16.737-6.588,20.424-10.378c2.897-3.126,2.897-6.477,2.897-8.374h1.444c0,5.916-0.772,8.703-2.557,11.272
							c-4.133,5.913-4.801,7.141-6.145,11.718c0,0-12.497-0.333-23.099-0.776c-8.146-0.339-11.389-0.224-15.179-0.224
							C399.685,372.196,395.894,372.972,390.981,372.972z"/>
						<path fill="#CCCCCC" d="M498.555,368.619c2.111,1.227,8.364,1.123,14.616,0.782c5.468-0.335,14.507-3.24,18.413-6.249
							c3.682-2.794,3.797-3.794,4.469-7.923h1.668c-0.336,5.351-1.225,8.483-4.352,11.714c-2.565,2.679-3.461,4.134-4.018,6.252
							c0,0-12.5-0.333-23.214-0.775c-8.035-0.339-9.71-0.225-13.508-0.225c-2.898,0-6.688,0.776-11.603,0.776
							c-3.461,0-2.682-0.552-5.355-0.552v-2.015c1.56,0,4.688,1.116,7.144,0.34c4.687-1.458,4.13-6.256,4.13-13.844v-28.902v-24.554
							c0-7.482,0.557-12.272-4.13-13.725c-2.455-0.898-5.584,0.333-7.144,0.333v-2.007c2.675,0,1.896-0.671,5.355-0.671
							c4.913,0,7.142,1.004,10.158,1.004c3.79,0.115,2.003,0.115,10.042-0.108c10.603-0.56,23.771-0.896,23.771-0.896
							s1.227,2.679,3.014,6.252c2.119,4.233,3.238,6.245,3.57,11.378h-1.676c-0.557-4.126,0-5.238-3.569-8.036
							c-3.906-3.007-11.497-6.476-16.962-6.476c-6.252,0-8.71-0.105-10.822,1.123c-3.126,2.01-3.126,3.122-3.126,10.604v24.771
							h13.611c3.015,0,8.699,0.224,9.599-4.13c0.336-1.556-0.224-4.682-1.342-7.255h2.126c0.888,2.015,1.335,3.802,1.449,5.021
							c0.554,3.909,0.218,4.021,0.673,6.364c0.553,3.014,2.455,4.133,2.675,9.602c0,1.112,0,3.126-0.336,4.573h-1.786
							c0.335-1.671,0.335-3.797,0.107-4.805c-0.443-2.782-1.896-3.791-3.791-4.901c-0.892-0.671-4.572-1.675-9.038-1.675h-13.947
							v28.234C495.429,365.496,495.429,366.615,498.555,368.619z"/>
						<path fill="#CCCCCC" d="M605.006,306.459l-1.787-0.115c0.443-3.458,0.664-4.353,0.443-5.804
							c-0.336-3.899-7.703-13.497-17.741-11.158c-4.024,1.007-8.154,3.461-9.378,8.147c-1.896,7.476,4.686,13.168,12.832,20.427
							l5.253,4.797c15.507,13.168,20.863,19.749,17.962,33.033c-1.676,8.035-8.035,14.398-16.294,16.41
							c-15.731,3.793-20.978-3.577-30.578-4.131c0,0,0.217-2.125,0-3.461c-1.115-6.808-2.902-9.821-1.68-17.745h1.896
							c-0.553,8.707,0.675,14.619,8.486,19.421c5.913,3.565,14.282,5.58,20.759,2.786c5.692-2.45,9.711-7.588,10.485-12.944
							c1.344-10.271-5.908-18.081-17.404-27.788l-3.906-3.351c-9.935-8.37-15.958-14.286-14.843-23.438
							c0.778-4.906,4.129-10.49,10.378-13.5c8.259-3.797,14.955-0.671,25.116,3.126C606.338,296.746,606.338,300.54,605.006,306.459
							z"/>
					</g>
				</g>
				<path fill="#CCCCCC" d="M233.217,57.797c0,0,2.262-8.521,5.64-10.112c0,0-7.615-25.305,14.935-43.954V0
					C253.792,0,221.378,20.517,233.217,57.797z"/>
				<g>
					<path fill="#CCCCCC" d="M334.99,155.959c-0.584,1.96-6.06,19.314-17.043,24.942l-0.694,0.362l-10.616,1.096h-1.423
						l-10.637-1.096l-0.683-0.362c-10.979-5.628-16.473-22.982-17.053-24.942l-0.179-0.582v-4.579
						c-2.419,7.589-6.322,20.511-6.322,25.142c0,0.258-0.255,30.69-0.255,30.69s4.985,22.207,27.947,35.68h7.402h0.981h7.396
						c22.962-13.473,27.948-35.68,27.948-35.68s-0.255-30.433-0.255-30.69c0-4.645-3.92-17.597-6.341-25.186v4.623L334.99,155.959z"
						/>
				</g>
				<g>
					<path fill="#CCCCCC" d="M254.687,106.935c-4.839-2.239-9.836-4.289-14.917-6.025c-5.833,24.917,33.466,30.181,33.466,30.181
						c2.676-4.689-0.324-11.948-3.772-15.549C265.568,111.481,259.795,109.29,254.687,106.935z"/>
					<path fill="#CCCCCC" d="M358.061,0v3.73c22.546,18.649,14.941,43.954,14.941,43.954c3.377,1.593,5.64,10.112,5.64,10.112
						C390.471,20.517,358.061,0,358.061,0z"/>
					<path fill="#CCCCCC" d="M357.155,106.935c-5.104,2.355-10.871,4.546-14.763,8.605c-3.451,3.602-6.455,10.859-3.78,15.549
						c0,0,39.299-5.264,33.47-30.181C367.001,102.646,361.997,104.696,357.155,106.935z"/>
					<path fill="#CCCCCC" d="M329.95,27.085l-2.252,4.268c11.343,4.557,24.078,9.946,32.681,18.628
						c18.431,18.572-9.768,38.463-25.925,47.419c0,0-5.202,2.847-9.756,2.847h-17.305h-0.098h-0.264h-0.755h-0.354h-0.363h-0.749
						h-0.36h-17.298c-4.56,0-9.763-2.847-9.763-2.847c-16.146-8.957-44.354-28.847-25.931-47.419
						c8.619-8.682,21.347-14.071,32.688-18.628l-2.255-4.268c0,0-41.731,12.436-44.344,33.026
						c-2.637,20.605,30.812,42.261,42.092,48.303l-3.014,3.997l6.126,46.545c0,0,3.553,17.286,20.896,18.298
						c0.028,0.016,0.045,0.058,0.073,0.058c1.314,0.104,3.224,0.045,3.224,0.045l0.01-0.023
						c18.438-0.223,22.135-18.376,22.135-18.376l6.122-46.545l-3.015-3.997c11.28-6.042,44.729-27.697,42.092-48.303
						C371.677,39.521,329.95,27.085,329.95,27.085z"/>
				</g>
			</g>
		</g>
	</g>
</g>
</svg>
